<svg width="1024" height="1024" viewBox="0 0 1024 1024" fill="none" xmlns="http://www.w3.org/2000/svg">
<g clip-path="url(#clip0_308_598)">
<path d="M100 683L50 633H-100L-50 683L-125 733H25L100 683Z" fill="#777777"/>
<path d="M75 733L150 685.5L100 633H325C475 633 475 588 475 583C475 578 475 533 325 533C175 533 75 483 75 383C75 283 175 233 325 233H525L575 283H469.5L457 333H325C175 333 175 378 175 383C175 387 175 433 325 433C475 433 575 483 575 583C575 683 475 733 325 733H75Z" fill="#777777"/>
<path d="M700 283L650 233H575L625 283H700Z" fill="#777777"/>
<path d="M850 283L800 233H700L750 283H850Z" fill="#777777"/>
<path d="M1153.5 284L1103.5 234H849L899 284H990.5L976 334H1078.5L1153.5 284Z" fill="#777777"/>
<path d="M939 407L964 307H489L464 407H664V807H764V407H939Z" fill="#77FF77"/>
<path d="M939 407L964 307H489L464 407H664V807H764V407H939Z" fill="#777777"/>
</g>
<defs>
<clipPath id="clip0_308_598">
<rect width="1024" height="1024" fill="white"/>
</clipPath>
</defs>
</svg>
