<svg width="1404" height="574" viewBox="0 0 1404 574" fill="none" xmlns="http://www.w3.org/2000/svg">
<path d="M350 450L300 400H150L200 450L125 500H275L350 450Z" fill="black"/>
<path d="M150 450L100 400H25L75 450L0 500H75L150 450Z" fill="black"/>
<path d="M325 500L400 452.5L350 400H575C725 400 725 355 725 350C725 345 725 300 575 300C425 300 325 250 325 150C325 50 425 0 575 0H775L825 50H719.5L707 100H575C425 100 425 145 425 150C425 154 425 200 575 200C725 200 825 250 825 350C825 450 725 500 575 500H325Z" fill="black"/>
<path d="M950 50L900 0H825L875 50H950Z" fill="black"/>
<path d="M1100 50L1050 0H950L1000 50H1100Z" fill="black"/>
<path d="M1403.5 51L1353.5 1H1099L1149 51H1240.5L1226 101H1328.5L1403.5 51Z" fill="black"/>
<path d="M1189 174L1214 74H739L714 174H914V574H1014V174H1189Z" fill="#77FF77"/>
<path d="M1189 174L1214 74H739L714 174H914V574H1014V174H1189Z" fill="black"/>
</svg>
